<svg xmlns="http://www.w3.org/2000/svg" viewBox="0 0 39.39 26.59"><defs><style>.cls-1{fill:#fff;}</style></defs><title>sound</title><g id="Layer_2" data-name="Layer 2"><g id="Layer_2-2" data-name="Layer 2"><path class="cls-1" d="M19,.44a3.19,3.19,0,0,0-3.23,0L9.11,6.56H3.37A3.37,3.37,0,0,0,0,9.93v6.73A3.37,3.37,0,0,0,3.37,20H8l7.64,6,.12.08a3.18,3.18,0,0,0,3.23,0,3.18,3.18,0,0,0,1.61-2.79V3.23A3.18,3.18,0,0,0,19,.44Zm-.39,22.92a1.22,1.22,0,0,1-1.78,1.09L8.66,18H3.37A1.38,1.38,0,0,1,2,16.66V9.93A1.38,1.38,0,0,1,3.37,8.56H9.9l6.91-6.44a1.23,1.23,0,0,1,1.75,1.11Z"/><path class="cls-1" d="M33.93.08a5.17,5.17,0,0,1-.76.92c-.55.45-.42.76,0,1.25,5.7,6.76,5.59,15.33-.3,21.93-.39.44-.44.66,0,1.15.71.83,1.26.91,1.89,0,.22-.33.51-.61.76-.92C41.23,17.16,40.58,6.16,33.93.08Z"/><path class="cls-1" d="M30.43,4.87c-.36-.36-.72-.64-1-.06s-1.32.48-.59,1.42c3.58,4.62,3.55,9.33-.16,13.8-.8,1,.19,1.09.48,1.55.42.64.75.26,1.1-.13a12.19,12.19,0,0,0,3.24-8.37A12.35,12.35,0,0,0,30.43,4.87Z"/><path class="cls-1" d="M25.71,8.53c-.34.45-1.45.57-.74,1.61a4.6,4.6,0,0,1-.25,6.12c-.76.94.34,1,.57,1.45s.65.38,1,0A6.83,6.83,0,0,0,28,12.88a6.47,6.47,0,0,0-1.37-4C26.44,8.62,26.2,7.88,25.71,8.53Z"/></g></g></svg>